<svg width="83.99999999999999" height="93" xmlns="http://www.w3.org/2000/svg">
 <defs id="SvgjsDefs1019">
  <linearGradient id="SvgjsLinearGradient1026">
   <stop offset="0" stop-color="#00ff8f" id="SvgjsStop1027"/>
   <stop offset="1" stop-color="#00a1ff" id="SvgjsStop1028"/>
  </linearGradient>
  <linearGradient id="SvgjsLinearGradient1029">
   <stop offset="0" stop-color="#00ff8f" id="SvgjsStop1030"/>
   <stop offset="1" stop-color="#00a1ff" id="SvgjsStop1031"/>
  </linearGradient>
 </defs>
 <g>
  <title>Layer 1</title>
  <g fill="url(#SvgjsLinearGradient1026)" transform="rotate(47.8759 42.2222 46.6667) matrix(1 0 0 1 21 0)" featurekey="symbolContainer" id="SvgjsG1020">
   <path id="svg_1" d="m-7.7778,16.66672l58,0l0,60l-58,0l0,0m4,-56l0,52l50,0l0,-52" fill-rule="nonzero" xmlns="http://www.w3.org/2000/svg"/>
  </g>
  <g fill="url(#SvgjsLinearGradient1029)" transform="matrix(0.372673 0 0 0.372673 31.8804 11.4817)" featurekey="uHI19F-0" id="SvgjsG1021">
   <polygon id="svg_2" points="32.86699295043945,85.65129470825195 20.239551544189453,98.28947830200195 25.076953887939453,103.12639236450195 37.70390701293945,90.49943923950195 " xmlns="http://www.w3.org/2000/svg"/>
   <polygon id="svg_3" points="44.17265701293945,84.03068923950195 48.00175857543945,80.20158767700195 53.10234451293945,85.30315017700195 40.17558670043945,99.14104080200195 45.03691482543945,103.99065017700195 62.63359451293945,85.14641189575195 48.01445388793945,70.51506423950195 39.33574295043945,79.18156814575195 " xmlns="http://www.w3.org/2000/svg"/>
   <polygon id="svg_4" points="13.769824981689453,104.74650955200195 9.941211700439453,108.57561111450195 5.236621856689453,103.87053298950195 18.607227325439453,90.49943923950195 13.769824981689453,85.65129470825195 -4.449413299560547,103.87053298950195 9.941211700439453,118.27385330200195 18.607227325439453,109.59611892700195 " xmlns="http://www.w3.org/2000/svg"/>
   <polygon id="svg_5" points="31.161914825439453,120.51897048950195 33.61113357543945,122.96623611450195 28.965625762939453,127.61174392700195 25.868946075439453,124.50334548950195 38.78398513793945,110.67619705200195 33.93535232543945,105.81584548950195 16.338672637939453,124.65959548950195 28.965625762939453,137.29826736450195 43.30839920043945,122.96623611450195 35.83183670043945,115.50041580200195 " xmlns="http://www.w3.org/2000/svg"/>
   <polygon id="svg_6" points="9.065235137939453,88.73527908325195 5.236621856689453,84.90666580200195 9.941211700439453,80.20158767700195 23.312305450439453,93.57219314575195 28.161426544189453,88.73527908325195 9.941211700439453,70.51506423950195 -4.449413299560547,84.90666580200195 4.228321075439453,93.58488845825195 " xmlns="http://www.w3.org/2000/svg"/>
   <polygon id="svg_7" points="10.684375762939453,100.03947830200195 24.689746856689453,114.04436111450195 29.374317169189453,109.04240798950195 15.531055450439453,95.19963455200195 " xmlns="http://www.w3.org/2000/svg"/>
   <polygon id="svg_8" points="28.161426544189453,69.63957595825195 24.332813262939453,65.81047439575195 28.965625762939453,61.16545486450195 33.61113357543945,65.81047439575195 20.239551544189453,79.18156814575195 25.076953887939453,84.03068923950195 43.30839920043945,65.81047439575195 28.965625762939453,51.47941970825195 14.646289825439453,65.81047439575195 23.347949981689453,74.52482986450195 " xmlns="http://www.w3.org/2000/svg"/>
   <polygon id="svg_9" points="47.82109451293945,89.29924392700195 34.63164138793945,76.10881423950195 29.782032012939453,80.94524002075195 43.14043045043945,94.30510330200195 " xmlns="http://www.w3.org/2000/svg"/>
   <polygon id="svg_10" points="49.59746170043945,100.77385330200195 52.70683670043945,103.87053298950195 48.00175857543945,108.57561111450195 34.63164138793945,95.20500564575195 29.782032012939453,100.04240798950195 48.01445388793945,118.27385330200195 62.39238357543945,103.87053298950195 54.27910232543945,95.75725173950195 " xmlns="http://www.w3.org/2000/svg"/>
  </g>
 </g>
</svg>